<svg height="637pt" viewBox="-86 -20 637 637.33332" width="637pt" xmlns="http://www.w3.org/2000/svg"><path d="m460.75 377.5c0-6.210938-5.039062-11.25-11.25-11.25h-442.5c-6.210938 0-11.25 5.039062-11.25 11.25s5.039062 11.25 11.25 11.25h96.976562c-13.828124 5.894531-22.8125 19.46875-22.828124 34.503906v162.996094c0 6.210938 5.035156 11.25 11.25 11.25 6.210937 0 11.25-5.039062 11.25-11.25v-162.996094c.074218-8.25 6.777343-14.894531 15.027343-14.894531 8.246094 0 14.949219 6.644531 15.027344 14.894531v65.316406c0 17.136719 8.539063 29.851563 24.054687 35.808594 16.835938 6.359375 35.808594 2.714844 49.101563-9.417968l1.054687-.941407 124.59375-101.808593c.292969-.234376.570313-.480469.835938-.746094 9.367188-9.351563 23.085938-12.867188 35.792969-9.167969l6.808593 1.980469-139.203124 173.414062c-2.558594 3.128906-3.238282 7.390625-1.789063 11.160156 1.457031 3.777344 4.820313 6.476563 8.820313 7.082032 3.992187.601562 8.007812-.980469 10.511718-4.15625l139.28125-173.511719c7.542969-8.484375 7.285156-21.339844-.59375-29.515625h56.527344c6.210938 0 11.25-5.039062 11.25-11.25zm-327.375 11.25h80.027344c-1.5625 1.367188-3.101563 2.769531-4.570313 4.25l-52.628906 47.851562v-17.597656c-.015625-15.035156-9-28.609375-22.828125-34.503906zm60.105469 108c-.125.105469-.261719.21875-.382813.332031l-1.238281 1.105469c-7.046875 6.417969-17.066406 8.414062-26.035156 5.183594-6.832031-2.625-9.625-6.914063-9.625-14.804688v-17.316406l67.984375-61.8125c.148437-.136719.296875-.277344.4375-.421875 9.453125-9.542969 21.597656-15.972656 34.804687-18.417969-1.597656 1.339844-3.167969 2.722656-4.691406 4.171875l-72.851563 64.625c-3.058593 2.65625-4.453124 6.75-3.652343 10.71875.796875 3.964844 3.667969 7.203125 7.507812 8.464844 3.847657 1.265625 8.078125.367187 11.074219-2.351563l73.003906-64.757812c.101563-.097656.210938-.195312.3125-.292969 14.472656-13.925781 33.785156-21.691406 53.871094-21.667969.203125 0 .402344-.019531.605469-.03125-2.386719 1.710938-4.636719 3.601563-6.738281 5.644532zm0 0"/><path d="m179.910156 0h-36.285156c-6.214844 0-11.25 5.039062-11.25 11.25v103.195312c-22.527344 11.066407-36.8125 33.976563-36.835938 59.074219v149.996094c.023438 18.261719 14.824219 33.0625 33.085938 33.082031h66.285156c18.265625-.019531 33.066406-14.820312 33.089844-33.082031v-149.996094c-.023438-25.097656-14.304688-48.007812-36.835938-59.074219v-103.195312c0-6.214844-5.039062-11.25390625-11.253906-11.25zm-11.25 22.5v20h-13.785156v-20zm-13.785156 42.5h13.785156v43.019531c-2.140625-.210937-4.300781-.324219-6.5-.324219h-.785156c-2.191406 0-4.355469.113282-6.496094.324219zm50.625 217.589844h-40.503906v-63.601563h40.503906zm0-109.070313v22.96875h-51.753906c-6.210938 0-11.25 5.039063-11.25 11.25v86.101563c0 6.214844 5.039062 11.25 11.25 11.25h51.753906v18.425781c-.003906 5.839844-4.742188 10.578125-10.582031 10.582031h-66.292969c-5.839844-.003906-10.574219-4.742187-10.582031-10.582031v-149.996094c.027343-23.914062 19.410156-43.300781 43.332031-43.324219h.796875c23.917969.023438 43.304687 19.410157 43.328125 43.324219zm0 0"/><path d="m270.75 333.75c-6.210938 0-11.25 5.039062-11.25 11.25s5.039062 11.25 11.25 11.25h80c6.210938 0 11.25-5.039062 11.25-11.25s-5.039062-11.25-11.25-11.25h-27.5v-51.601562c22.503906-5.4375 38.355469-25.59375 38.328125-48.75v-77.851563c0-6.210937-5.039063-11.25-11.25-11.25h-76.964844c-6.210937 0-11.25 5.039063-11.25 11.25v77.847656c-.027343 23.277344 15.980469 43.5 38.636719 48.828125v51.527344zm68.328125-166.953125v28.203125h-54.464844v-28.203125zm-54.464844 66.597656v-15.894531h54.464844v15.894531c.132813 9.820313-5.027344 18.945313-13.507813 23.894531-8.484374 4.949219-18.964843 4.949219-27.449218 0-8.480469-4.949218-13.640625-14.074218-13.507813-23.894531zm0 0"/></svg>